<?xml version="1.0" encoding="UTF-8"?>
<svg width="506px" height="196px" viewBox="0 0 506 196" version="1.1" xmlns="http://www.w3.org/2000/svg" xmlns:xlink="http://www.w3.org/1999/xlink">
    <title>logo/light/default</title>
    <defs>
        <linearGradient x1="47.580077%" y1="118.35897%" x2="56.4003231%" y2="-15.6391809%" id="linearGradient-1">
            <stop stop-color="#5000C8" offset="0%"></stop>
            <stop stop-color="#FC2F00" offset="99.9480988%"></stop>
        </linearGradient>
    </defs>
    <g id="logo/light/default" stroke="none" stroke-width="1" fill="none" fill-rule="evenodd">
        <g id="logo/light/image-only" transform="translate(-34.217134, -12.037111)" fill="url(#linearGradient-1)">
            <g id="Lava" transform="translate(95.023468, 105.516739) rotate(28.000000) translate(-95.023468, -105.516739) translate(33.571268, 18.686354)">
                <path d="M20.7444285,2.65777545 C16.6767654,17.7146954 15.9986185,30.6912976 18.7099878,41.587582 C34.7786417,106.163304 93.7182702,70.1764357 111.304199,85.7804981 C124.845087,97.7953799 126.531021,127.0883 116.361999,173.659257 C106.600554,155.018944 98.4139348,145.17972 91.802141,144.141585 C81.8844502,142.584383 70.308507,164.02864 65.2630894,165.636087 C61.1838157,166.935724 59.152359,165.747054 57.4016863,164.232063 L57.12734,163.990458 C57.0819187,163.949843 57.0366274,163.909082 56.9914339,163.868212 L56.7211896,163.622017 C56.6762586,163.580874 56.6313612,163.539702 56.5864649,163.498541 L56.1815624,163.129432 C52.6384036,159.934033 49.7217205,154.732378 49.5690923,154.444598 C49.202946,153.75423 42.164517,152.669155 39.9421747,151.452043 C38.4606132,150.640636 38.3756483,148.593305 39.68728,145.310053 C36.2269851,146.266554 33.964181,145.740482 32.8988677,143.731836 C31.8335543,141.72319 30.4177666,138.062688 28.6515046,132.750332 C22.2014127,135.311236 18.0005525,134.751796 16.048924,131.072011 C13.1214886,125.552329 16.9950653,99.6859945 16.3171314,96.0079906 C15.6391975,92.3299866 -1.82633226,75.4887897 0.156849868,47.6734224 C1.47897129,29.1298442 8.34149748,14.1246286 20.7444285,2.65777545 Z M75.7730673,54.5667369 C82.0012249,53.2395447 87.8879109,56.1150247 88.9213499,60.9893032 C89.9547871,65.863582 85.7436353,70.890869 79.5154784,72.2180644 C75.3633735,73.1028597 64.1524989,72.417047 45.8828546,70.1606262 C54.7561256,64.8106163 61.790665,60.8253189 66.9864729,58.2047341 L67.6683511,57.86341 C71.3587522,56.0306069 74.0603242,54.9317158 75.7730673,54.5667369 Z M61.5335539,30.0391346 C66.7873703,23.9799997 74.9322133,22.4545299 79.725586,26.6319065 C84.5189489,30.8092942 84.1456906,39.1076386 78.891892,45.1667889 C75.3893508,49.2062148 63.5654401,56.9847775 43.4201599,68.5024771 C51.9932265,46.8996849 58.0310245,34.0785707 61.5335539,30.0391346 Z M30.4345955,16.5949377 C30.9344536,7.03288297 37.599092,-0.389819286 45.3204841,0.0158281867 C53.0418721,0.42155575 58.8960806,8.50200744 58.3962227,18.0640622 C58.0629841,24.4387654 52.5530128,40.4482873 41.8663089,66.0926279 C33.9119282,39.468871 30.101357,22.9696409 30.4345955,16.5949377 Z" id="Combined-Shape"></path>
            </g>
        </g>
        <g id="Testo" transform="translate(137.460000, 17.044500)" fill="#1E1E24" fill-rule="nonzero">
            <g id="VOLCANIC" transform="translate(0.593000, 0.000000)">
                <path d="M50.9895,0.648 L27.3375,57.9555 L23.652,57.9555 L0,0.648 L3.2805,0.648 C3.6585,0.648 3.969,0.74925 4.212,0.95175 C4.455,1.15425 4.644,1.4175 4.779,1.7415 L24.3,49.2885 C24.516,49.8825 24.732,50.517 24.948,51.192 C25.164,51.867 25.3665,52.5555 25.5555,53.2575 C25.7175,52.5555 25.893,51.867 26.082,51.192 C26.271,50.517 26.487,49.8825 26.73,49.2885 L46.2105,1.7415 C46.3185,1.4445 46.5075,1.188 46.7775,0.972 C47.0475,0.756 47.3715,0.648 47.7495,0.648 L50.9895,0.648 Z" id="Path"></path>
                <path d="M106.0695,29.2815 C106.0695,33.7095 105.408,37.72575 104.085,41.33025 C102.762,44.93475 100.899,48.01275 98.496,50.56425 C96.093,53.11575 93.21075,55.08675 89.84925,56.47725 C86.48775,57.86775 82.782,58.563 78.732,58.563 C74.682,58.563 70.983,57.86775 67.635,56.47725 C64.287,55.08675 61.4115,53.11575 59.0085,50.56425 C56.6055,48.01275 54.7425,44.93475 53.4195,41.33025 C52.0965,37.72575 51.435,33.7095 51.435,29.2815 C51.435,24.8805 52.0965,20.87775 53.4195,17.27325 C54.7425,13.66875 56.6055,10.59075 59.0085,8.03925 C61.4115,5.48775 64.287,3.51 67.635,2.106 C70.983,0.702 74.682,0 78.732,0 C82.782,0 86.48775,0.69525 89.84925,2.08575 C93.21075,3.47625 96.093,5.454 98.496,8.019 C100.899,10.584 102.762,13.66875 104.085,17.27325 C105.408,20.87775 106.0695,24.8805 106.0695,29.2815 Z M101.7765,29.2815 C101.7765,25.2855 101.223,21.6945 100.116,18.5085 C99.009,15.3225 97.443,12.6225 95.418,10.4085 C93.393,8.1945 90.963,6.50025 88.128,5.32575 C85.293,4.15125 82.161,3.564 78.732,3.564 C75.33,3.564 72.2115,4.15125 69.3765,5.32575 C66.5415,6.50025 64.10475,8.1945 62.06625,10.4085 C60.02775,12.6225 58.44825,15.3225 57.32775,18.5085 C56.20725,21.6945 55.647,25.2855 55.647,29.2815 C55.647,33.3045 56.20725,36.90225 57.32775,40.07475 C58.44825,43.24725 60.02775,45.9405 62.06625,48.1545 C64.10475,50.3685 66.5415,52.056 69.3765,53.217 C72.2115,54.378 75.33,54.9585 78.732,54.9585 C82.161,54.9585 85.293,54.378 88.128,53.217 C90.963,52.056 93.393,50.3685 95.418,48.1545 C97.443,45.9405 99.009,43.24725 100.116,40.07475 C101.223,36.90225 101.7765,33.3045 101.7765,29.2815 Z" id="Shape"></path>
                <polygon id="Path" points="146.529 54.432 146.529 57.9555 115.2225 57.9555 115.2225 0.648 119.394 0.648 119.394 54.432"></polygon>
                <path d="M190.026,48.3165 C190.296,48.3165 190.5255,48.411 190.7145,48.6 L192.3345,50.3415 C191.1465,51.6105 189.85725,52.75125 188.46675,53.76375 C187.07625,54.77625 185.55075,55.64025 183.89025,56.35575 C182.22975,57.07125 180.40725,57.62475 178.42275,58.01625 C176.43825,58.40775 174.258,58.6035 171.882,58.6035 C167.913,58.6035 164.27475,57.90825 160.96725,56.51775 C157.65975,55.12725 154.818,53.15625 152.442,50.60475 C150.066,48.05325 148.22325,44.9685 146.91375,41.3505 C145.60425,37.7325 144.9495,33.7095 144.9495,29.2815 C144.9495,24.9345 145.6245,20.9655 146.9745,17.3745 C148.3245,13.7835 150.2145,10.69875 152.6445,8.12025 C155.0745,5.54175 157.9905,3.54375 161.3925,2.12625 C164.7945,0.70875 168.5475,0 172.6515,0 C176.5665,0 180.036,0.6075 183.06,1.8225 C186.084,3.0375 188.838,4.752 191.322,6.966 L190.0665,8.7885 C189.8505,9.1125 189.513,9.2745 189.054,9.2745 C188.73,9.2745 188.2035,8.9775 187.4745,8.3835 C186.7455,7.7895 185.733,7.13475 184.437,6.41925 C183.141,5.70375 181.52775,5.049 179.59725,4.455 C177.66675,3.861 175.3515,3.564 172.6515,3.564 C169.1955,3.564 166.02975,4.158 163.15425,5.346 C160.27875,6.534 157.80825,8.235 155.74275,10.449 C153.67725,12.663 152.064,15.363 150.903,18.549 C149.742,21.735 149.1615,25.3125 149.1615,29.2815 C149.1615,33.3315 149.74875,36.9495 150.92325,40.1355 C152.09775,43.3215 153.711,46.01475 155.763,48.21525 C157.815,50.41575 160.23825,52.10325 163.03275,53.27775 C165.82725,54.45225 168.8445,55.0395 172.0845,55.0395 C174.1365,55.0395 175.96575,54.9045 177.57225,54.6345 C179.17875,54.3645 180.657,53.9595 182.007,53.4195 C183.357,52.8795 184.6125,52.218 185.7735,51.435 C186.9345,50.652 188.082,49.734 189.216,48.681 C189.351,48.573 189.486,48.48525 189.621,48.41775 C189.756,48.35025 189.891,48.3165 190.026,48.3165 Z" id="Path"></path>
                <path d="M230.283,37.1385 L218.619,8.181 C218.214,7.236 217.8225,6.102 217.4445,4.779 C217.2825,5.427 217.107,6.04125 216.918,6.62175 C216.729,7.20225 216.5265,7.7355 216.3105,8.2215 L204.6465,37.1385 L230.283,37.1385 Z M242.9595,57.9555 L239.76,57.9555 C239.382,57.9555 239.0715,57.85425 238.8285,57.65175 C238.5855,57.44925 238.3965,57.186 238.2615,56.862 L231.5385,40.2165 L203.391,40.2165 L196.668,56.862 C196.56,57.159 196.371,57.4155 196.101,57.6315 C195.831,57.8475 195.507,57.9555 195.129,57.9555 L191.97,57.9555 L215.4195,0.648 L219.51,0.648 L242.9595,57.9555 Z" id="Shape"></path>
                <path d="M292.653,0.648 L292.653,57.9555 L290.709,57.9555 C290.358,57.9555 290.06775,57.89475 289.83825,57.77325 C289.60875,57.65175 289.386,57.4425 289.17,57.1455 L251.9505,7.4115 C252.0315,8.2215 252.072,8.991 252.072,9.72 L252.072,57.9555 L248.427,57.9555 L248.427,0.648 L250.4925,0.648 C250.8705,0.648 251.16075,0.69525 251.36325,0.78975 C251.56575,0.88425 251.7885,1.0935 252.0315,1.4175 L289.17,51.03 C289.089,50.22 289.0485,49.4505 289.0485,48.7215 L289.0485,0.648 L292.653,0.648 Z" id="Path"></path>
                <polygon id="Path" points="309.7035 57.9555 305.532 57.9555 305.532 0.648 309.7035 0.648"></polygon>
                <path d="M363.933,48.3165 C364.203,48.3165 364.4325,48.411 364.6215,48.6 L366.2415,50.3415 C365.0535,51.6105 363.76425,52.75125 362.37375,53.76375 C360.98325,54.77625 359.45775,55.64025 357.79725,56.35575 C356.13675,57.07125 354.31425,57.62475 352.32975,58.01625 C350.34525,58.40775 348.165,58.6035 345.789,58.6035 C341.82,58.6035 338.18175,57.90825 334.87425,56.51775 C331.56675,55.12725 328.725,53.15625 326.349,50.60475 C323.973,48.05325 322.13025,44.9685 320.82075,41.3505 C319.51125,37.7325 318.8565,33.7095 318.8565,29.2815 C318.8565,24.9345 319.5315,20.9655 320.8815,17.3745 C322.2315,13.7835 324.1215,10.69875 326.5515,8.12025 C328.9815,5.54175 331.8975,3.54375 335.2995,2.12625 C338.7015,0.70875 342.4545,0 346.5585,0 C350.4735,0 353.943,0.6075 356.967,1.8225 C359.991,3.0375 362.745,4.752 365.229,6.966 L363.9735,8.7885 C363.7575,9.1125 363.42,9.2745 362.961,9.2745 C362.637,9.2745 362.1105,8.9775 361.3815,8.3835 C360.6525,7.7895 359.64,7.13475 358.344,6.41925 C357.048,5.70375 355.43475,5.049 353.50425,4.455 C351.57375,3.861 349.2585,3.564 346.5585,3.564 C343.1025,3.564 339.93675,4.158 337.06125,5.346 C334.18575,6.534 331.71525,8.235 329.64975,10.449 C327.58425,12.663 325.971,15.363 324.81,18.549 C323.649,21.735 323.0685,25.3125 323.0685,29.2815 C323.0685,33.3315 323.65575,36.9495 324.83025,40.1355 C326.00475,43.3215 327.618,46.01475 329.67,48.21525 C331.722,50.41575 334.14525,52.10325 336.93975,53.27775 C339.73425,54.45225 342.7515,55.0395 345.9915,55.0395 C348.0435,55.0395 349.87275,54.9045 351.47925,54.6345 C353.08575,54.3645 354.564,53.9595 355.914,53.4195 C357.264,52.8795 358.5195,52.218 359.6805,51.435 C360.8415,50.652 361.989,49.734 363.123,48.681 C363.258,48.573 363.393,48.48525 363.528,48.41775 C363.663,48.35025 363.798,48.3165 363.933,48.3165 Z" id="Path"></path>
            </g>
            <g id="MINDS" transform="translate(0.000000, 72.575500)">
                <path d="M98.28,0.96 L98.28,88.38 L80.4,88.38 L80.4,38.1 C80.4,36.94 80.43,35.68 80.49,34.32 C80.55,32.96 80.66,31.58 80.82,30.18 L57.6,75.12 C56.88,76.52 55.91,77.58 54.69,78.3 C53.47,79.02 52.08,79.38 50.52,79.38 L47.76,79.38 C46.2,79.38 44.81,79.02 43.59,78.3 C42.37,77.58 41.4,76.52 40.68,75.12 L17.46,30.06 C17.58,31.5 17.68,32.91 17.76,34.29 C17.84,35.67 17.88,36.94 17.88,38.1 L17.88,88.38 L0,88.38 L0,0.96 L15.48,0.96 C16.36,0.96 17.13,0.98 17.79,1.02 C18.45,1.06 19.04,1.18 19.56,1.38 C20.08,1.58 20.55,1.89 20.97,2.31 C21.39,2.73 21.8,3.32 22.2,4.08 L44.7,48.42 C45.5,49.94 46.27,51.52 47.01,53.16 C47.75,54.8 48.46,56.48 49.14,58.2 C49.82,56.44 50.53,54.72 51.27,53.04 C52.01,51.36 52.8,49.76 53.64,48.24 L76.08,4.08 C76.48,3.32 76.89,2.73 77.31,2.31 C77.73,1.89 78.2,1.58 78.72,1.38 C79.24,1.18 79.83,1.06 80.49,1.02 C81.15,0.98 81.92,0.96 82.8,0.96 L98.28,0.96 Z" id="Path"></path>
                <polygon id="Path" points="129.6 88.38 109.2 88.38 109.2 0.96 129.6 0.96"></polygon>
                <path d="M216.84,0.96 L216.84,88.38 L206.28,88.38 C204.72,88.38 203.41,88.13 202.35,87.63 C201.29,87.13 200.24,86.26 199.2,85.02 L157.98,32.88 C158.14,34.44 158.25,35.95 158.31,37.41 C158.37,38.87 158.4,40.24 158.4,41.52 L158.4,88.38 L140.52,88.38 L140.52,0.96 L151.2,0.96 C152.08,0.96 152.82,1 153.42,1.08 C154.02,1.16 154.56,1.31 155.04,1.53 C155.52,1.75 155.98,2.06 156.42,2.46 C156.86,2.86 157.36,3.4 157.92,4.08 L199.5,56.58 C199.3,54.9 199.16,53.27 199.08,51.69 C199,50.11 198.96,48.62 198.96,47.22 L198.96,0.96 L216.84,0.96 Z" id="Path"></path>
                <path d="M307.08,44.64 C307.08,50.96 305.99,56.79 303.81,62.13 C301.63,67.47 298.56,72.09 294.6,75.99 C290.64,79.89 285.87,82.93 280.29,85.11 C274.71,87.29 268.52,88.38 261.72,88.38 L227.76,88.38 L227.76,0.96 L261.72,0.96 C268.52,0.96 274.71,2.06 280.29,4.26 C285.87,6.46 290.64,9.5 294.6,13.38 C298.56,17.26 301.63,21.87 303.81,27.21 C305.99,32.55 307.08,38.36 307.08,44.64 Z M286.32,44.64 C286.32,40.32 285.76,36.42 284.64,32.94 C283.52,29.46 281.91,26.51 279.81,24.09 C277.71,21.67 275.14,19.81 272.1,18.51 C269.06,17.21 265.6,16.56 261.72,16.56 L248.16,16.56 L248.16,72.78 L261.72,72.78 C265.6,72.78 269.06,72.13 272.1,70.83 C275.14,69.53 277.71,67.67 279.81,65.25 C281.91,62.83 283.52,59.88 284.64,56.4 C285.76,52.92 286.32,49 286.32,44.64 Z" id="Shape"></path>
                <path d="M361.38,18.72 C360.78,19.68 360.15,20.4 359.49,20.88 C358.83,21.36 357.98,21.6 356.94,21.6 C356.02,21.6 355.03,21.31 353.97,20.73 C352.91,20.15 351.71,19.5 350.37,18.78 C349.03,18.06 347.5,17.41 345.78,16.83 C344.06,16.25 342.1,15.96 339.9,15.96 C336.1,15.96 333.27,16.77 331.41,18.39 C329.55,20.01 328.62,22.2 328.62,24.96 C328.62,26.72 329.18,28.18 330.3,29.34 C331.42,30.5 332.89,31.5 334.71,32.34 C336.53,33.18 338.61,33.95 340.95,34.65 C343.29,35.35 345.68,36.13 348.12,36.99 C350.56,37.85 352.95,38.86 355.29,40.02 C357.63,41.18 359.71,42.66 361.53,44.46 C363.35,46.26 364.82,48.45 365.94,51.03 C367.06,53.61 367.62,56.72 367.62,60.36 C367.62,64.4 366.92,68.18 365.52,71.7 C364.12,75.22 362.09,78.29 359.43,80.91 C356.77,83.53 353.49,85.59 349.59,87.09 C345.69,88.59 341.26,89.34 336.3,89.34 C333.58,89.34 330.81,89.06 327.99,88.5 C325.17,87.94 322.44,87.15 319.8,86.13 C317.16,85.11 314.68,83.9 312.36,82.5 C310.04,81.1 308.02,79.54 306.3,77.82 L312.3,68.34 C312.78,67.66 313.41,67.09 314.19,66.63 C314.97,66.17 315.82,65.94 316.74,65.94 C317.94,65.94 319.15,66.32 320.37,67.08 C321.59,67.84 322.97,68.68 324.51,69.6 C326.05,70.52 327.82,71.36 329.82,72.12 C331.82,72.88 334.18,73.26 336.9,73.26 C340.58,73.26 343.44,72.45 345.48,70.83 C347.52,69.21 348.54,66.64 348.54,63.12 C348.54,61.08 347.98,59.42 346.86,58.14 C345.74,56.86 344.27,55.8 342.45,54.96 C340.63,54.12 338.56,53.38 336.24,52.74 C333.92,52.1 331.54,51.39 329.1,50.61 C326.66,49.83 324.28,48.87 321.96,47.73 C319.64,46.59 317.57,45.09 315.75,43.23 C313.93,41.37 312.46,39.05 311.34,36.27 C310.22,33.49 309.66,30.06 309.66,25.98 C309.66,22.7 310.32,19.5 311.64,16.38 C312.96,13.26 314.9,10.48 317.46,8.04 C320.02,5.6 323.16,3.65 326.88,2.19 C330.6,0.73 334.86,0 339.66,0 C342.34,0 344.95,0.21 347.49,0.63 C350.03,1.05 352.44,1.67 354.72,2.49 C357,3.31 359.13,4.29 361.11,5.43 C363.09,6.57 364.86,7.86 366.42,9.3 L361.38,18.72 Z" id="Path"></path>
            </g>
        </g>
    </g>
</svg>