<svg xmlns="http://www.w3.org/2000/svg" width="506" height="196" viewBox="0 0 506 196"><title>logo/dark/default copy</title><g fill="#f5f5f5" fill-rule="evenodd"><path d="M53.043 65.99q32.181-26.455 37.11-34.664c4.93-8.208 3.566-18.085-3.046-22.06S71.14 8.723 66.21 16.932Q61.281 25.14 53.043 65.99M53.28 68.846q34.732-1.1 42.205-3.989c7.473-2.889 11.697-10.041 9.436-15.975-2.262-5.933-10.153-8.402-17.626-5.513q-7.473 2.889-34.014 25.477M54.672 71.464q22.553 15.825 28.662 17.57c6.11 1.745 12.18-.72 13.558-5.509 1.378-4.787-2.458-10.084-8.568-11.83q-6.11-1.745-33.652-.231"/><path d="M64.135 0Q39.71 6.43 24.965 30.057C10.224 53.683 17.74 76.773 16.62 80.34 15.498 83.906 0 104.922 0 111.173q0 6.252 10.318 7.413-1.389 8.282-1.389 11.696 0 3.412 5.243 4.588-4.035 3.423-2.645 5.543c1.389 2.12 7.082 6.392 7.082 7.174 0 .325.14 6.291 1.768 10.78.976 2.69 1.633 5.532 6.829 6.488 5.196.955 25.413-12.53 33.422-6.488q8.01 6.043 7.845 37.624 46.076-54.502 36.603-79.975c-8.202-22.055-76.938-18.02-60.923-82.6Q48.207 17.068 64.135 0"/><g fill-rule="nonzero"><path d="M189.043 17.693 165.39 75h-3.685l-23.652-57.308h3.28q.568 0 .932.304t.567.79l19.521 47.547q.324.89.648 1.904.324 1.012.607 2.065.243-1.053.527-2.065t.648-1.904l19.48-47.547q.162-.446.567-.77.405-.323.972-.323zM244.123 46.326q0 6.642-1.985 12.049t-5.589 9.234q-3.604 3.826-8.647 5.913-5.042 2.085-11.117 2.085t-11.097-2.085-8.626-5.913q-3.606-3.828-5.59-9.234t-1.984-12.049q0-6.602 1.984-12.008 1.984-5.407 5.59-9.234 3.603-3.828 8.626-5.933 5.022-2.107 11.097-2.107t11.117 2.086q5.043 2.086 8.647 5.933t5.589 9.255q1.984 5.406 1.984 12.008m-4.293 0q0-5.994-1.661-10.773-1.66-4.779-4.698-8.1t-7.29-5.083-9.396-1.762q-5.102 0-9.356 1.762-4.252 1.762-7.31 5.083t-4.738 8.1-1.681 10.773q0 6.034 1.68 10.793 1.68 4.76 4.74 8.08 3.057 3.32 7.31 5.063 4.252 1.74 9.355 1.741 5.144 0 9.396-1.742 4.252-1.74 7.29-5.062 3.038-3.32 4.698-8.08 1.66-4.758 1.66-10.793M284.582 71.477V75h-31.306V17.692h4.171v53.785zM328.079 65.361q.406 0 .688.283l1.62 1.742a27.3 27.3 0 0 1-3.867 3.422 23.6 23.6 0 0 1-4.577 2.592q-2.49 1.075-5.467 1.66-2.977.588-6.541.588-5.953 0-10.915-2.086-4.96-2.085-8.525-5.913-3.564-3.827-5.528-9.254t-1.964-12.069q0-6.52 2.025-11.907t5.67-9.254 8.748-5.994q5.102-2.126 11.258-2.126 5.873 0 10.409 1.822a28.1 28.1 0 0 1 8.262 5.143l-1.255 1.823q-.324.486-1.013.486-.486 0-1.58-.891-1.092-.891-3.037-1.964t-4.84-1.965-6.945-.89q-5.184 0-9.498 1.781-4.313 1.783-7.411 5.103-3.099 3.322-4.84 8.1-1.742 4.78-1.742 10.733 0 6.075 1.762 10.854 1.762 4.78 4.84 8.08a20.9 20.9 0 0 0 7.27 5.062q4.192 1.762 9.051 1.762 3.08 0 5.488-.405 2.41-.405 4.435-1.215a20 20 0 0 0 3.767-1.984 28.5 28.5 0 0 0 3.442-2.755q.202-.16.405-.263a.9.9 0 0 1 .405-.101M368.336 54.183l-11.664-28.958q-.608-1.418-1.175-3.402a28 28 0 0 1-.526 1.843q-.284.87-.608 1.6L342.7 54.183zM381.012 75h-3.199q-.566 0-.932-.304a2 2 0 0 1-.566-.79l-6.724-16.645h-28.147l-6.723 16.645a1.74 1.74 0 0 1-.567.77q-.405.324-.972.324h-3.159l23.45-57.308h4.09zM430.706 17.693V75h-1.944q-.527 0-.87-.182-.345-.183-.669-.628l-37.22-49.734q.122 1.215.122 2.308V75h-3.645V17.692h2.065q.567 0 .871.142t.668.628l37.139 49.613q-.122-1.215-.122-2.309V17.692zM447.757 75h-4.172V17.692h4.172zM501.986 65.361q.405 0 .689.283l1.62 1.742a27.3 27.3 0 0 1-3.868 3.422 23.6 23.6 0 0 1-4.577 2.592q-2.49 1.075-5.467 1.66-2.977.588-6.541.588-5.953 0-10.915-2.086-4.96-2.085-8.525-5.913-3.564-3.827-5.528-9.254-1.965-5.427-1.965-12.069 0-6.52 2.026-11.907t5.67-9.254 8.748-5.994q5.102-2.126 11.258-2.126 5.874 0 10.409 1.822a28.1 28.1 0 0 1 8.262 5.143l-1.255 1.823q-.324.486-1.013.486-.486 0-1.58-.891-1.093-.891-3.037-1.964-1.945-1.073-4.84-1.965-2.895-.89-6.946-.89-5.183 0-9.497 1.781-4.313 1.783-7.411 5.103-3.099 3.322-4.84 8.1-1.742 4.78-1.742 10.733 0 6.075 1.762 10.854 1.762 4.78 4.84 8.08a20.9 20.9 0 0 0 7.27 5.062q4.192 1.762 9.051 1.762 3.08 0 5.488-.405 2.41-.405 4.435-1.215a20 20 0 0 0 3.767-1.984 28.5 28.5 0 0 0 3.442-2.755q.203-.16.405-.263a.9.9 0 0 1 .405-.101M235.74 90.58V178h-17.88v-50.28q0-1.74.09-3.78t.33-4.14l-23.22 44.94q-1.08 2.1-2.91 3.18t-4.17 1.08h-2.76q-2.34 0-4.17-1.08t-2.91-3.18l-23.22-45.06q.18 2.16.3 4.23t.12 3.81V178h-17.88V90.58h15.48q1.32 0 2.31.06t1.77.36 1.41.93 1.23 1.77l22.5 44.34q1.2 2.28 2.31 4.74t2.13 5.04q1.02-2.64 2.13-5.16t2.37-4.8l22.44-44.16q.6-1.14 1.23-1.77t1.41-.93 1.77-.36 2.31-.06zM267.06 178h-20.4V90.58h20.4zM354.3 90.58V178h-10.56q-2.34 0-3.93-.75t-3.15-2.61l-41.22-52.14q.24 2.34.33 4.53t.09 4.11V178h-17.88V90.58h10.68q1.32 0 2.22.12t1.62.45 1.38.93 1.5 1.62l41.58 52.5q-.3-2.52-.42-4.89t-.12-4.47V90.58zM444.54 134.26q0 9.48-3.27 17.49t-9.21 13.86-14.31 9.12-18.57 3.27h-33.96V90.58h33.96q10.2 0 18.57 3.3t14.31 9.12 9.21 13.83 3.27 17.43m-20.76 0q0-6.48-1.68-11.7t-4.83-8.85-7.71-5.58-10.38-1.95h-13.56v56.22h13.56q5.82 0 10.38-1.95t7.71-5.58 4.83-8.85 1.68-11.76M498.84 108.34q-.9 1.44-1.89 2.16t-2.55.72q-1.38 0-2.97-.87t-3.6-1.95-4.59-1.95-5.88-.87q-5.7 0-8.49 2.43t-2.79 6.57q0 2.64 1.68 4.38t4.41 3 6.24 2.31 7.17 2.34 7.17 3.03a23.9 23.9 0 0 1 6.24 4.44q2.73 2.7 4.41 6.57t1.68 9.33q0 6.06-2.1 11.34t-6.09 9.21-9.84 6.18-13.29 2.25q-4.08 0-8.31-.84a49.4 49.4 0 0 1-8.19-2.37 47.5 47.5 0 0 1-7.44-3.63q-3.48-2.1-6.06-4.68l6-9.48q.72-1.02 1.89-1.71a4.93 4.93 0 0 1 2.55-.69q1.8 0 3.63 1.14t4.14 2.52 5.31 2.52 7.08 1.14q5.52 0 8.58-2.43t3.06-7.71q0-3.06-1.68-4.98t-4.41-3.18-6.21-2.22a185 185 0 0 1-7.14-2.13q-3.66-1.17-7.14-2.88a22.5 22.5 0 0 1-6.21-4.5q-2.73-2.79-4.41-6.96t-1.68-10.29q0-4.92 1.98-9.6t5.82-8.34 9.42-5.85 12.78-2.19q4.02 0 7.83.63t7.23 1.86 6.39 2.94 5.31 3.87z"/></g></g></svg>